<?xml version="1.0" encoding="utf-8"?>
<!-- Generator: Adobe Illustrator 19.0.0, SVG Export Plug-In . SVG Version: 6.00 Build 0)  -->
<svg version="1.1" id="Capa_1" xmlns="http://www.w3.org/2000/svg" xmlns:xlink="http://www.w3.org/1999/xlink" x="0px" y="0px"
	 viewBox="-720 302.1 477.9 477.9" style="enable-background:new -720 302.1 477.9 477.9;" xml:space="preserve">
<style type="text/css">
	.st0{fill:#FFFFFF;}
</style>
<g>
	<g>
		<path class="st0" d="M-378.7,387.5h-290.1c-28.3,0-51.2,22.9-51.2,51.2v290.1c0,28.3,22.9,51.2,51.2,51.2h290.1
			c28.3,0,51.2-22.9,51.2-51.2V438.7C-327.5,410.4-350.4,387.5-378.7,387.5z M-361.6,728.8c0,9.4-7.6,17.1-17.1,17.1h-290.1
			c-9.4,0-17.1-7.6-17.1-17.1V438.7c0-9.4,7.6-17.1,17.1-17.1h290.1c9.4,0,17.1,7.6,17.1,17.1V728.8z"/>
	</g>
</g>
<g>
	<g>
		<path class="st0" d="M-293.3,302.1h-307.2c-28.3,0-51.2,22.9-51.2,51.2c0,9.4,7.6,17.1,17.1,17.1s17.1-7.6,17.1-17.1
			c0-9.4,7.6-17.1,17.1-17.1h307.2c9.4,0,17.1,7.6,17.1,17.1v307.2c0,9.4-7.6,17.1-17.1,17.1s-17.1,7.6-17.1,17.1
			s7.6,17.1,17.1,17.1c28.3,0,51.2-22.9,51.2-51.2V353.3C-242.1,325.1-265.1,302.1-293.3,302.1z"/>
	</g>
</g>
</svg>
