<?xml version="1.0" encoding="utf-8"?>
<!-- Generator: Adobe Illustrator 19.0.0, SVG Export Plug-In . SVG Version: 6.00 Build 0)  -->
<svg version="1.1" xmlns="http://www.w3.org/2000/svg" xmlns:xlink="http://www.w3.org/1999/xlink" x="0px" y="0px"
	 viewBox="0 0 522.9 218" style="enable-background:new 0 0 522.9 218;" xml:space="preserve">
<style type="text/css">
	.st0{display:none;}
	.st1{fill:#171617;}
	.st2{fill:#4355A5;}
	.st3{fill:none;stroke:#4355A5;stroke-width:7;stroke-miterlimit:10;}
	.st4{fill:none;stroke:#171617;stroke-width:7;stroke-miterlimit:10;}
</style>
<g id="Layer_1" class="st0">
	
		<image style="display:inline;overflow:visible;" width="229" height="149" id="XMLID_1_" xlink:href="Capture.PNG"  transform="matrix(2.6855 0 0 2.6855 17.4642 13.6078)">
	</image>
</g>
<g id="Layer_2">
	<g id="XMLID_84_">
		<path id="XMLID_85_" class="st1" d="M22.8,25.5c-1.9,0-3.6-0.3-5.1-0.9c-1.5-0.6-2.7-1.5-3.7-2.6c-1-1.1-1.7-2.5-2.2-4
			c-0.5-1.5-0.8-3.2-0.8-5.1c0-2.5,0.5-4.7,1.4-6.6c0.9-1.9,2.4-3.4,4.2-4.5C18.5,0.6,20.7,0,23.3,0c2.8,0,5.3,0.6,7.5,1.9l-1.1,2.4
			c-2.1-1.2-4.2-1.8-6.3-1.8c-1.5,0-2.8,0.3-4,0.8c-1.2,0.5-2.2,1.2-2.9,2.2c-0.8,0.9-1.3,2-1.7,3.2c-0.4,1.2-0.6,2.6-0.6,4.1
			c0,3.1,0.8,5.6,2.3,7.4c1.6,1.8,3.9,2.7,6.9,2.7c1.7,0,3.5-0.4,5.3-1.1v-7h-5.8l0.1-2.5h8.4v11.3c-1.4,0.7-2.8,1.1-4.1,1.4
			C25.9,25.4,24.5,25.5,22.8,25.5z"/>
		<path id="XMLID_87_" class="st1" d="M35.2,19V6.8H38v12.2c0,0.8,0.1,1.5,0.3,2s0.6,1,1,1.3c0.4,0.3,0.9,0.5,1.5,0.7
			c0.5,0.1,1.2,0.2,1.9,0.2c1.4,0,2.6-0.3,3.4-1c0.8-0.6,1.2-1.7,1.2-3.2V6.8h2.8V19c0,0.9-0.1,1.8-0.4,2.5s-0.6,1.4-1.1,1.9
			c-0.5,0.5-1,0.9-1.6,1.2c-0.6,0.3-1.3,0.6-2,0.7c-0.7,0.1-1.5,0.2-2.3,0.2c-0.8,0-1.6-0.1-2.3-0.2s-1.4-0.4-2-0.7
			c-0.6-0.3-1.2-0.7-1.7-1.2c-0.5-0.5-0.8-1.1-1.1-1.9S35.2,20,35.2,19z"/>
		<path id="XMLID_89_" class="st1" d="M62,25.5c-2.7,0-4.8-0.8-6.3-2.5c-1.5-1.7-2.3-4-2.3-6.9c0-2.8,0.7-5.1,2.2-6.9
			c1.5-1.8,3.4-2.7,5.8-2.7c2.3,0,4.1,0.8,5.4,2.3s2,3.6,2,6.2c0,0.1,0,0.4,0,0.7c0,0.4,0,0.6,0,0.8H56.3c0,2.1,0.6,3.7,1.6,4.9
			s2.4,1.7,4.2,1.7c1.9,0,3.9-0.5,5.8-1.5l0.4,2.3C66.5,25,64.4,25.5,62,25.5z M64.8,10.2c-0.8-1-1.9-1.5-3.4-1.5
			c-1.4,0-2.6,0.5-3.5,1.5c-0.9,1-1.4,2.4-1.6,4.1H66C66,12.6,65.6,11.2,64.8,10.2z"/>
		<path id="XMLID_92_" class="st1" d="M78.2,25.5c-1.2,0-2.4-0.1-3.4-0.4c-1.1-0.3-1.9-0.6-2.6-1l0.4-2.4c1.9,1,3.7,1.5,5.5,1.5
			c2.7,0,4.1-1,4.2-2.9c0-0.8-0.3-1.5-0.9-1.9s-1.7-1-3.4-1.6l-1.4-0.5c-1.6-0.5-2.7-1.2-3.4-2c-0.7-0.8-1-1.8-1-3
			c0-1.4,0.6-2.6,1.7-3.6c1.2-0.9,2.7-1.4,4.7-1.4c2.1,0,4,0.4,5.7,1.2l-0.8,2.1c-1.7-0.7-3.3-1.1-4.8-1.1c-1.2,0-2.1,0.2-2.7,0.7
			c-0.7,0.5-1,1.1-1,1.9c0,0.7,0.2,1.3,0.7,1.6s1.4,0.8,2.9,1.3c0.4,0.1,0.8,0.3,1.4,0.5c1.8,0.6,3.2,1.3,3.9,2.1
			c0.8,0.8,1.2,1.9,1.2,3.3c0,1.7-0.6,3-1.8,3.9C81.8,25.1,80.2,25.5,78.2,25.5z"/>
		<path id="XMLID_94_" class="st1" d="M94.5,25.5c-1.8,0-3.1-0.4-3.8-1.3s-1.2-2.3-1.2-4.3v-11h-2.7l0.1-1.8l2.6-0.2l1-4.2l1.8-0.1
			v4.3h5.1v2.1h-5.1v10.5c0,1.4,0.2,2.4,0.6,2.9c0.4,0.6,1.1,0.9,2.2,0.9c0.4,0,1.2-0.1,2.4-0.3l0.1,2.2
			C96.2,25.4,95.2,25.5,94.5,25.5z"/>
		<path id="XMLID_96_" class="st1" d="M120.4,2.6c-1.9,0-3.5,0.5-4.8,1.4c-1.3,0.9-2.3,2.1-3,3.6c-0.7,1.5-1,3.3-1,5.3
			c0,1.5,0.2,2.8,0.5,4c0.4,1.2,0.9,2.3,1.6,3.2c0.7,0.9,1.6,1.6,2.8,2.1c1.1,0.5,2.5,0.8,3.9,0.8c1.9,0,3.9-0.5,5.9-1.5l0.5,2.5
			c-1.7,1-3.9,1.6-6.7,1.6c-1.9,0-3.5-0.3-5-0.9c-1.5-0.6-2.7-1.5-3.7-2.6c-1-1.1-1.7-2.5-2.2-4c-0.5-1.6-0.8-3.3-0.8-5.2
			c0-1.8,0.3-3.6,0.8-5.1c0.5-1.6,1.3-2.9,2.3-4c1-1.1,2.2-2,3.7-2.6c1.5-0.6,3.1-0.9,5-0.9c2.8,0,5.1,0.6,7,1.8l-1.1,2.4
			C124.4,3.1,122.5,2.6,120.4,2.6z"/>
		<path id="XMLID_98_" class="st1" d="M146.7,16c0,2.8-0.8,5.1-2.3,6.9s-3.6,2.6-6.3,2.6c-2.6,0-4.6-0.9-6.1-2.7
			c-1.5-1.8-2.3-4.1-2.3-6.9c0-2.8,0.8-5.2,2.3-6.9s3.6-2.6,6.3-2.6c2.6,0,4.7,0.9,6.2,2.6C145.9,10.9,146.7,13.2,146.7,16z
			 M132.6,16c0,2.2,0.5,3.9,1.4,5.2c1,1.3,2.4,2,4.2,2c1.8,0,3.2-0.7,4.1-2s1.4-3.1,1.4-5.3c0-2.2-0.5-4-1.4-5.3
			c-0.9-1.3-2.3-1.9-4.2-1.9c-1.8,0-3.2,0.7-4.2,2C133.1,12.1,132.6,13.8,132.6,16z"/>
		<path id="XMLID_101_" class="st1" d="M150.6,25.2V6.8h2.3l0.4,2.6c0.7-0.9,1.6-1.6,2.7-2.2c1.1-0.6,2.3-0.8,3.5-0.8
			c2.1,0,3.7,0.6,4.7,1.8c1,1.2,1.5,3,1.5,5.5v11.5H163c0-7.3,0-11.3,0-11.8c0-1.6-0.4-2.7-0.9-3.4c-0.6-0.7-1.6-1.1-2.9-1.1
			c-1.4,0-2.6,0.3-3.6,1c-1,0.7-1.6,1.6-1.9,2.7c-0.1,0.7-0.2,1.6-0.2,2.6v10H150.6z"/>
		<path id="XMLID_103_" class="st1" d="M176.2,25.5c-1.8,0-3.1-0.4-3.8-1.3s-1.2-2.3-1.2-4.3v-11h-2.7l0.1-1.8l2.6-0.2l1-4.2
			l1.8-0.1v4.3h5.1v2.1H174v10.5c0,1.4,0.2,2.4,0.6,2.9c0.4,0.6,1.1,0.9,2.2,0.9c0.4,0,1.2-0.1,2.4-0.3l0.1,2.2
			C177.9,25.4,176.9,25.5,176.2,25.5z"/>
		<path id="XMLID_105_" class="st1" d="M190.5,6.7c0.5,0,1,0,1.4,0.1l-0.1,2.6c-0.5-0.1-1-0.1-1.3-0.1c-1.6,0-2.8,0.5-3.8,1.6
			c-1,1.1-1.5,2.4-1.5,4v10.3h-2.8c0-11.2,0-17.3,0-18.3h2.3l0.3,3.3c0.6-1,1.4-1.9,2.4-2.5C188.3,7,189.4,6.7,190.5,6.7z"/>
		<path id="XMLID_107_" class="st1" d="M210.5,16c0,2.8-0.8,5.1-2.3,6.9s-3.6,2.6-6.3,2.6c-2.6,0-4.6-0.9-6.1-2.7
			c-1.5-1.8-2.3-4.1-2.3-6.9c0-2.8,0.8-5.2,2.3-6.9s3.6-2.6,6.3-2.6c2.6,0,4.7,0.9,6.2,2.6C209.7,10.9,210.5,13.2,210.5,16z
			 M196.4,16c0,2.2,0.5,3.9,1.4,5.2c1,1.3,2.4,2,4.2,2c1.8,0,3.2-0.7,4.1-2s1.4-3.1,1.4-5.3c0-2.2-0.5-4-1.4-5.3
			c-0.9-1.3-2.3-1.9-4.2-1.9c-1.8,0-3.2,0.7-4.2,2C196.9,12.1,196.4,13.8,196.4,16z"/>
		<path id="XMLID_110_" class="st1" d="M219.3,25.5c-1.8,0-3-0.5-3.8-1.4c-0.7-1-1.1-2.6-1.1-5V-0.3l2.8-0.2V18c0,0.8,0,1.4,0,1.8
			c0,0.5,0.1,0.9,0.1,1.3c0.1,0.4,0.2,0.8,0.3,1s0.3,0.4,0.5,0.6s0.5,0.3,0.8,0.4c0.3,0.1,0.7,0.1,1.1,0.1c0.4,0,1.1-0.1,2.1-0.2
			l0.2,2.2C221.1,25.4,220.1,25.5,219.3,25.5z"/>
		<path id="XMLID_112_" class="st1" d="M248.6,16c0,2.8-0.8,5.1-2.3,6.9s-3.6,2.6-6.3,2.6c-2.6,0-4.6-0.9-6.1-2.7
			c-1.5-1.8-2.3-4.1-2.3-6.9c0-2.8,0.8-5.2,2.3-6.9s3.6-2.6,6.3-2.6c2.6,0,4.7,0.9,6.2,2.6C247.8,10.9,248.6,13.2,248.6,16z
			 M234.5,16c0,2.2,0.5,3.9,1.4,5.2c1,1.3,2.4,2,4.2,2c1.8,0,3.2-0.7,4.1-2c0.9-1.3,1.4-3.1,1.4-5.3c0-2.2-0.5-4-1.4-5.3
			c-0.9-1.3-2.3-1.9-4.2-1.9c-1.8,0-3.2,0.7-4.2,2C235,12.1,234.5,13.8,234.5,16z"/>
		<path id="XMLID_115_" class="st1" d="M259.5,1.5c-1.2,0-2,0.3-2.4,1c-0.4,0.7-0.6,1.8-0.6,3.5v0.9h4.4v2.1h-4.4v16.2h-2.8V8.9h-3
			l0.2-1.8l2.7-0.2V6c0-2.4,0.5-4.1,1.3-5.1c0.9-1.1,2.3-1.6,4.2-1.6c0.7,0,1.7,0.1,2.7,0.3l-0.2,2.2C260.7,1.6,260,1.5,259.5,1.5z"
			/>
		<path id="XMLID_117_" class="st1" d="M275.2,25.2h-3v-25h8c1.2,0,2.3,0.1,3.3,0.4c1,0.3,1.9,0.6,2.6,1.2c0.8,0.5,1.4,1.2,1.8,2.1
			c0.4,0.9,0.6,1.9,0.6,3.1c0,1-0.1,1.8-0.3,2.6c-0.2,0.8-0.5,1.5-0.9,2.1c-0.4,0.7-1,1.2-1.7,1.7c-0.7,0.4-1.6,0.8-2.7,1
			c-1.1,0.3-2.4,0.4-3.8,0.4c-1.1,0-2.5-0.1-4.1-0.2V25.2z M279.6,12.2c1.1,0,2-0.1,2.8-0.3c0.8-0.2,1.4-0.5,1.8-0.8
			c0.4-0.3,0.7-0.7,1-1.2c0.2-0.5,0.4-1,0.4-1.4c0.1-0.4,0.1-0.9,0.1-1.5c0-1.4-0.5-2.5-1.4-3.1c-1-0.7-2.2-1-3.9-1h-5.2v9.3
			C277.3,12.2,278.8,12.2,279.6,12.2z"/>
		<path id="XMLID_120_" class="st1" d="M296.5,25.5c-1.8,0-3-0.5-3.8-1.4c-0.7-1-1.1-2.6-1.1-5V-0.3l2.8-0.2V18c0,0.8,0,1.4,0,1.8
			c0,0.5,0.1,0.9,0.1,1.3s0.2,0.8,0.3,1s0.3,0.4,0.5,0.6c0.2,0.2,0.5,0.3,0.8,0.4c0.3,0.1,0.7,0.1,1.1,0.1c0.4,0,1.1-0.1,2.1-0.2
			l0.2,2.2C298.2,25.4,297.2,25.5,296.5,25.5z"/>
		<path id="XMLID_122_" class="st1" d="M312.4,25.2c-0.2-0.7-0.3-1.5-0.5-2.3c-1,1-2,1.7-2.9,2.1c-0.9,0.4-1.9,0.6-3.1,0.6
			c-1.7,0-3.1-0.4-4.1-1.3s-1.6-2.2-1.6-3.9c0-1.9,0.7-3.3,2.1-4.2c1.4-0.9,3.5-1.5,6.1-1.7c0.4,0,0.9-0.1,1.7-0.1
			c0.7-0.1,1.3-0.1,1.7-0.1v-1.6c0-1.3-0.3-2.2-0.9-2.9c-0.6-0.6-1.5-0.9-2.8-0.9c-1.8,0-3.6,0.4-5.5,1.3c-0.1-0.1-0.2-0.5-0.4-1.2
			c-0.2-0.6-0.4-1-0.4-1c0.8-0.5,1.8-0.8,2.9-1.1c1.1-0.3,2.3-0.4,3.4-0.4c2.3,0,3.9,0.5,4.9,1.5c1,1,1.5,2.7,1.5,5.1v12.1H312.4z
			 M306.3,23.3c1.3,0,2.5-0.4,3.5-1.1c1-0.7,1.7-1.7,1.9-2.9v-3.1c-0.1,0-0.4,0-1,0.1c-0.6,0.1-1,0.1-1.2,0.1
			c-2.4,0.2-4.1,0.6-5,1.2c-1,0.6-1.4,1.5-1.4,2.8c0,1,0.3,1.7,0.9,2.2S305.3,23.3,306.3,23.3z"/>
		<path id="XMLID_125_" class="st1" d="M317,6.8h3l5.8,15.2l5.1-15.2h3c-4.9,13.6-7.5,20.6-7.7,21c-0.8,1.9-1.7,3.3-2.8,4.2
			c-1.1,0.9-2.5,1.3-4.3,1.3c-0.5,0-1.1,0-1.7-0.1l-0.2-2.4c0.6,0,1.1,0.1,1.4,0.1c1.3,0,2.2-0.2,2.9-0.7c0.7-0.5,1.2-1.3,1.7-2.6
			c0.5-1.2,0.8-2.1,1-2.7L317,6.8z"/>
		<path id="XMLID_127_" class="st1" d="M345.1,6.5c1.6,0,3,0.4,4.2,1.2s2.1,1.9,2.7,3.4c0.6,1.4,0.9,3,0.9,4.9c0,1.9-0.3,3.6-0.9,5
			c-0.6,1.4-1.5,2.6-2.7,3.4c-1.2,0.8-2.6,1.2-4.2,1.2c-1.2,0-2.3-0.3-3.3-0.8c-1-0.5-1.8-1.2-2.5-2.1l-0.3,2.5h-2.4V-0.3l2.8-0.2
			v6.1c0,1.5,0,2.8-0.1,3.8c0.6-0.9,1.5-1.7,2.5-2.2C342.8,6.7,343.9,6.5,345.1,6.5z M344.8,8.8c-1.8,0-3.1,0.6-4.1,1.8
			s-1.4,3-1.4,5.4c0,4.8,1.8,7.2,5.5,7.2c0.9,0,1.7-0.2,2.4-0.6c0.7-0.4,1.2-0.9,1.6-1.6c0.4-0.7,0.7-1.4,0.9-2.3
			c0.2-0.8,0.3-1.8,0.3-2.8c0-1.4-0.2-2.6-0.5-3.7c-0.3-1-0.9-1.9-1.7-2.6C347,9.1,346,8.8,344.8,8.8z"/>
		<path id="XMLID_130_" class="st1" d="M367.8,25.2c-0.2-0.7-0.3-1.5-0.5-2.3c-1,1-2,1.7-2.9,2.1c-0.9,0.4-1.9,0.6-3.1,0.6
			c-1.7,0-3.1-0.4-4.1-1.3s-1.6-2.2-1.6-3.9c0-1.9,0.7-3.3,2.1-4.2c1.4-0.9,3.5-1.5,6.1-1.7c0.4,0,0.9-0.1,1.7-0.1
			c0.7-0.1,1.3-0.1,1.7-0.1v-1.6c0-1.3-0.3-2.2-0.9-2.9c-0.6-0.6-1.5-0.9-2.8-0.9c-1.8,0-3.6,0.4-5.5,1.3c-0.1-0.1-0.2-0.5-0.4-1.2
			c-0.2-0.6-0.4-1-0.4-1c0.8-0.5,1.8-0.8,2.9-1.1c1.1-0.3,2.3-0.4,3.4-0.4c2.3,0,3.9,0.5,4.9,1.5c1,1,1.5,2.7,1.5,5.1v12.1H367.8z
			 M361.7,23.3c1.3,0,2.5-0.4,3.5-1.1c1-0.7,1.7-1.7,1.9-2.9v-3.1c-0.1,0-0.4,0-1,0.1c-0.6,0.1-1,0.1-1.2,0.1
			c-2.4,0.2-4.1,0.6-5,1.2c-1,0.6-1.4,1.5-1.4,2.8c0,1,0.3,1.7,0.9,2.2S360.7,23.3,361.7,23.3z"/>
		<path id="XMLID_133_" class="st1" d="M382.5,25.5c-2.7,0-4.8-0.9-6.3-2.6c-1.5-1.7-2.3-4-2.3-6.9c0-2.8,0.8-5.2,2.3-6.9
			c1.5-1.8,3.7-2.7,6.3-2.7c0.9,0,1.9,0.1,2.7,0.4c0.9,0.2,1.6,0.5,2.1,0.9l-0.8,2.2c-1.3-0.7-2.7-1.1-4.1-1.1
			c-1.8,0-3.2,0.6-4.2,1.9c-1,1.3-1.5,3.1-1.5,5.3c0,2.2,0.5,3.9,1.5,5.2c1,1.3,2.4,1.9,4.2,1.9c1.4,0,2.9-0.4,4.4-1.2l0.4,2.2
			C386.1,25.1,384.5,25.5,382.5,25.5z"/>
		<path id="XMLID_135_" class="st1" d="M391,25.2V-0.3l2.8-0.2v13.3v2.3c0.1-0.1,0.2-0.2,0.3-0.3s0.2-0.3,0.3-0.4
			c1-1.1,3.5-3.6,7.5-7.7h3.5l-7.6,7.7l8.1,10.6h-3.5l-6.7-9l-2,1.8v7.3H391z"/>
		<path id="XMLID_137_" class="st1" d="M416.9,21.1c2.6,1.3,5.3,1.9,8.3,1.9c3.6,0,5.4-1.6,5.4-4.9c0-1.1-0.3-1.9-0.9-2.6
			s-1.6-1.2-3.1-1.6l-4.9-1.2c-3.8-0.9-5.6-2.9-5.6-6c0-2.3,0.8-4.1,2.4-5.2c1.6-1.1,3.8-1.7,6.7-1.7c1.5,0,2.9,0.2,4.2,0.5
			c1.3,0.3,2.4,0.8,3.3,1.3l-0.8,2.4c-0.7-0.4-1.7-0.8-3-1.1s-2.5-0.5-3.7-0.5c-4,0-6,1.4-6,4.2c0,0.9,0.3,1.7,0.9,2.3
			c0.6,0.6,1.5,1,2.8,1.3l4.7,1.1c2,0.5,3.5,1.2,4.6,2.3s1.6,2.5,1.6,4.5c0,2.5-0.8,4.4-2.3,5.7c-1.5,1.3-3.6,1.9-6.3,1.9
			c-2,0-3.7-0.2-5.3-0.6c-1.5-0.4-2.8-0.9-3.7-1.4L416.9,21.1z"/>
		<path id="XMLID_139_" class="st1" d="M443.2,25.5c-1.8,0-3.1-0.4-3.8-1.3s-1.2-2.3-1.2-4.3v-11h-2.7l0.1-1.8l2.6-0.2l1-4.2
			l1.8-0.1v4.3h5.1v2.1h-5.1v10.5c0,1.4,0.2,2.4,0.6,2.9c0.4,0.6,1.1,0.9,2.2,0.9c0.4,0,1.2-0.1,2.4-0.3l0.1,2.2
			C444.9,25.4,443.9,25.5,443.2,25.5z"/>
		<path id="XMLID_141_" class="st1" d="M460.5,25.2c-0.2-0.7-0.3-1.5-0.5-2.3c-1,1-2,1.7-2.9,2.1c-0.9,0.4-1.9,0.6-3.1,0.6
			c-1.7,0-3.1-0.4-4.1-1.3c-1-0.9-1.6-2.2-1.6-3.9c0-1.9,0.7-3.3,2.1-4.2s3.5-1.5,6.1-1.7c0.4,0,0.9-0.1,1.7-0.1
			c0.7-0.1,1.3-0.1,1.7-0.1v-1.6c0-1.3-0.3-2.2-0.9-2.9c-0.6-0.6-1.5-0.9-2.8-0.9c-1.8,0-3.6,0.4-5.5,1.3c-0.1-0.1-0.2-0.5-0.4-1.2
			c-0.2-0.6-0.4-1-0.4-1c0.8-0.5,1.8-0.8,2.9-1.1c1.1-0.3,2.3-0.4,3.4-0.4c2.3,0,3.9,0.5,4.9,1.5c1,1,1.5,2.7,1.5,5.1v12.1H460.5z
			 M454.4,23.3c1.3,0,2.5-0.4,3.5-1.1c1-0.7,1.7-1.7,1.9-2.9v-3.1c-0.1,0-0.4,0-1,0.1s-1,0.1-1.2,0.1c-2.4,0.2-4.1,0.6-5.1,1.2
			c-1,0.6-1.4,1.5-1.4,2.8c0,1,0.3,1.7,0.9,2.2C452.6,23,453.4,23.3,454.4,23.3z"/>
		<path id="XMLID_144_" class="st1" d="M473.3,25.5c-1.8,0-3.1-0.4-3.8-1.3s-1.2-2.3-1.2-4.3v-11h-2.7l0.1-1.8l2.6-0.2l1-4.2
			l1.8-0.1v4.3h5.1v2.1h-5.1v10.5c0,1.4,0.2,2.4,0.6,2.9c0.4,0.6,1.1,0.9,2.2,0.9c0.4,0,1.2-0.1,2.4-0.3l0.1,2.2
			C475,25.4,474,25.5,473.3,25.5z"/>
		<path id="XMLID_146_" class="st1" d="M486.9,25.5c-2.7,0-4.8-0.8-6.3-2.5c-1.5-1.7-2.3-4-2.3-6.9c0-2.8,0.7-5.1,2.2-6.9
			c1.5-1.8,3.4-2.7,5.8-2.7c2.3,0,4.1,0.8,5.4,2.3c1.3,1.6,2,3.6,2,6.2c0,0.1,0,0.4,0,0.7c0,0.4,0,0.6,0,0.8h-12.6
			c0,2.1,0.6,3.7,1.6,4.9s2.4,1.7,4.2,1.7c1.9,0,3.9-0.5,5.8-1.5l0.4,2.3C491.4,25,489.3,25.5,486.9,25.5z M489.7,10.2
			c-0.8-1-1.9-1.5-3.4-1.5s-2.6,0.5-3.5,1.5c-0.9,1-1.4,2.4-1.6,4.1h9.7C490.9,12.6,490.5,11.2,489.7,10.2z"/>
	</g>
	<circle id="XMLID_18_" class="st2" cx="108.4" cy="97.8" r="13.9"/>
	<circle id="XMLID_19_" class="st3" cx="108.4" cy="97.8" r="22.8"/>
	<circle id="XMLID_20_" class="st4" cx="408.7" cy="97.8" r="22.8"/>
	<g id="XMLID_58_">
		<path id="XMLID_59_" class="st1" d="M3.9,203.1H0v-32.7h10.5c1.6,0,3.1,0.2,4.3,0.5c1.3,0.3,2.4,0.8,3.5,1.5s1.8,1.6,2.3,2.8
			c0.6,1.2,0.8,2.5,0.8,4c0,1.3-0.1,2.4-0.3,3.4c-0.2,1-0.6,1.9-1.2,2.8c-0.6,0.9-1.3,1.6-2.2,2.2c-0.9,0.6-2.1,1-3.5,1.4
			s-3.1,0.5-5,0.5c-1.5,0-3.3-0.1-5.3-0.3V203.1z M9.6,186.1c1.4,0,2.7-0.1,3.7-0.4c1-0.3,1.8-0.6,2.3-1c0.5-0.4,1-0.9,1.3-1.6
			c0.3-0.7,0.5-1.3,0.6-1.8c0.1-0.5,0.1-1.2,0.1-2c0-1.8-0.6-3.2-1.9-4.1c-1.2-0.9-2.9-1.3-5.1-1.3H3.9v12.2
			C6.7,186.1,8.6,186.1,9.6,186.1z"/>
		<path id="XMLID_62_" class="st1" d="M31.7,203.6c-2.3,0-4-0.6-4.9-1.9c-1-1.3-1.5-3.4-1.5-6.5v-25.3l3.6-0.2v24.1c0,1,0,1.8,0,2.4
			c0,0.6,0.1,1.2,0.2,1.8c0.1,0.6,0.2,1,0.3,1.3c0.1,0.3,0.4,0.6,0.6,0.8c0.3,0.2,0.6,0.4,1,0.5c0.4,0.1,0.9,0.1,1.4,0.1
			c0.5,0,1.4-0.1,2.8-0.3l0.2,2.9C34,203.4,32.8,203.6,31.7,203.6z"/>
		<path id="XMLID_64_" class="st1" d="M52.6,203.1c-0.2-0.9-0.4-1.9-0.6-3c-1.3,1.3-2.6,2.2-3.7,2.8c-1.2,0.5-2.5,0.8-4.1,0.8
			c-2.2,0-4-0.6-5.4-1.8s-2-2.9-2-5.1c0-2.4,0.9-4.3,2.8-5.4c1.9-1.2,4.5-1.9,8-2.2c0.5,0,1.2-0.1,2.2-0.2c1-0.1,1.7-0.1,2.2-0.2
			v-2.1c0-1.7-0.4-2.9-1.2-3.8c-0.8-0.8-2-1.2-3.7-1.2c-2.4,0-4.7,0.6-7.1,1.7c-0.1-0.2-0.3-0.7-0.6-1.5c-0.3-0.8-0.5-1.3-0.5-1.3
			c1.1-0.6,2.3-1.1,3.8-1.4c1.5-0.4,3-0.5,4.5-0.5c3,0,5.1,0.7,6.5,2c1.3,1.3,2,3.5,2,6.7v15.9H52.6z M44.6,200.7
			c1.7,0,3.3-0.5,4.6-1.4c1.3-1,2.2-2.2,2.5-3.9v-4c-0.1,0-0.5,0-1.3,0.1c-0.8,0.1-1.3,0.1-1.6,0.1c-3.2,0.3-5.4,0.8-6.6,1.6
			c-1.2,0.8-1.9,2-1.9,3.6c0,1.3,0.4,2.3,1.1,2.9C42.3,200.4,43.3,200.7,44.6,200.7z"/>
		<path id="XMLID_67_" class="st1" d="M58.6,179.2h3.9l7.6,19.9l6.7-19.9h3.9c-6.5,17.8-9.8,27-10,27.5c-1,2.5-2.2,4.4-3.6,5.5
			c-1.4,1.2-3.3,1.8-5.6,1.8c-0.7,0-1.4-0.1-2.2-0.2l-0.2-3.1c0.8,0.1,1.4,0.1,1.8,0.1c1.6,0,2.9-0.3,3.7-0.9
			c0.9-0.6,1.6-1.7,2.3-3.4c0.6-1.5,1-2.7,1.3-3.5L58.6,179.2z"/>
		<path id="XMLID_69_" class="st1" d="M85.1,207.9H82l14.8-36.8h3.2L85.1,207.9z"/>
		<path id="XMLID_71_" class="st1" d="M108.8,203.1h-3.9v-32.7h10.5c1.6,0,3.1,0.2,4.3,0.5c1.3,0.3,2.4,0.8,3.5,1.5s1.8,1.6,2.3,2.8
			c0.6,1.2,0.8,2.5,0.8,4c0,1.3-0.1,2.4-0.3,3.4c-0.2,1-0.6,1.9-1.2,2.8c-0.6,0.9-1.3,1.6-2.2,2.2c-0.9,0.6-2.1,1-3.5,1.4
			s-3.1,0.5-5,0.5c-1.5,0-3.3-0.1-5.3-0.3V203.1z M114.5,186.1c1.4,0,2.7-0.1,3.7-0.4c1-0.3,1.8-0.6,2.3-1c0.5-0.4,1-0.9,1.3-1.6
			c0.3-0.7,0.5-1.3,0.6-1.8c0.1-0.5,0.1-1.2,0.1-2c0-1.8-0.6-3.2-1.9-4.1c-1.2-0.9-2.9-1.3-5.1-1.3h-6.8v12.2
			C111.6,186.1,113.5,186.1,114.5,186.1z"/>
		<path id="XMLID_74_" class="st1" d="M144.8,203.1c-0.2-0.9-0.4-1.9-0.6-3c-1.3,1.3-2.6,2.2-3.7,2.8c-1.2,0.5-2.5,0.8-4.1,0.8
			c-2.2,0-4-0.6-5.4-1.8s-2-2.9-2-5.1c0-2.4,0.9-4.3,2.8-5.4c1.9-1.2,4.5-1.9,8-2.2c0.5,0,1.2-0.1,2.2-0.2c1-0.1,1.7-0.1,2.2-0.2
			v-2.1c0-1.7-0.4-2.9-1.2-3.8c-0.8-0.8-2-1.2-3.7-1.2c-2.4,0-4.7,0.6-7.1,1.7c-0.1-0.2-0.3-0.7-0.6-1.5c-0.3-0.8-0.5-1.3-0.5-1.3
			c1.1-0.6,2.3-1.1,3.8-1.4c1.5-0.4,3-0.5,4.5-0.5c3,0,5.1,0.7,6.5,2c1.3,1.3,2,3.5,2,6.7v15.9H144.8z M136.9,200.7
			c1.7,0,3.3-0.5,4.6-1.4c1.3-1,2.2-2.2,2.5-3.9v-4c-0.1,0-0.5,0-1.3,0.1c-0.8,0.1-1.3,0.1-1.6,0.1c-3.2,0.3-5.4,0.8-6.6,1.6
			c-1.2,0.8-1.9,2-1.9,3.6c0,1.3,0.4,2.3,1.1,2.9C134.5,200.4,135.6,200.7,136.9,200.7z"/>
		<path id="XMLID_77_" class="st1" d="M153.1,195.1v-16h3.7v16c0,1,0.1,1.9,0.4,2.7s0.7,1.3,1.3,1.7c0.6,0.4,1.2,0.7,1.9,0.9
			c0.7,0.2,1.5,0.3,2.4,0.3c1.9,0,3.4-0.4,4.4-1.2c1.1-0.8,1.6-2.2,1.6-4.2v-16h3.7v16c0,1.2-0.2,2.3-0.5,3.3
			c-0.3,1-0.8,1.8-1.4,2.4s-1.3,1.2-2.1,1.6s-1.7,0.7-2.6,0.9c-0.9,0.2-1.9,0.3-3,0.3c-1,0-2-0.1-3-0.3c-0.9-0.2-1.8-0.5-2.7-0.9
			s-1.6-1-2.2-1.6s-1.1-1.5-1.4-2.4S153.1,196.3,153.1,195.1z"/>
		<path id="XMLID_79_" class="st1" d="M185.1,203.6c-1.6,0-3.1-0.2-4.5-0.5s-2.5-0.8-3.4-1.4l0.5-3.1c2.4,1.3,4.8,1.9,7.2,1.9
			c3.6,0,5.4-1.3,5.5-3.8c0-1.1-0.4-1.9-1.1-2.5c-0.8-0.6-2.2-1.3-4.5-2.1l-1.8-0.6c-2.1-0.7-3.6-1.6-4.5-2.6
			c-0.9-1-1.4-2.3-1.4-3.9c0-1.9,0.8-3.4,2.3-4.7c1.5-1.2,3.6-1.9,6.2-1.9c2.7,0,5.2,0.5,7.4,1.6l-1.1,2.8c-2.3-0.9-4.4-1.4-6.3-1.4
			c-1.5,0-2.7,0.3-3.6,0.9c-0.9,0.6-1.3,1.5-1.3,2.5c0,0.9,0.3,1.6,0.9,2.1c0.6,0.5,1.9,1.1,3.8,1.7c0.5,0.2,1.1,0.4,1.8,0.6
			c2.4,0.8,4.1,1.7,5.1,2.8c1,1.1,1.5,2.5,1.5,4.3c0,2.2-0.8,3.9-2.4,5.1C189.9,203,187.8,203.6,185.1,203.6z"/>
		<path id="XMLID_81_" class="st1" d="M209,203.6c-3.5,0-6.2-1.1-8.2-3.3c-2-2.2-3-5.2-3-9.1c0-3.7,1-6.7,2.9-9s4.5-3.5,7.6-3.5
			c3,0,5.3,1,7.1,3c1.7,2,2.6,4.7,2.6,8.1c0,0.2,0,0.5,0,1c0,0.5,0,0.8,0,1h-16.4c0,2.7,0.7,4.8,2.1,6.4c1.4,1.5,3.2,2.3,5.5,2.3
			c2.5,0,5.1-0.7,7.6-2l0.6,2.9C214.8,202.9,212.1,203.6,209,203.6z M212.6,183.6c-1.1-1.3-2.5-1.9-4.4-1.9c-1.9,0-3.4,0.7-4.6,2
			c-1.2,1.3-1.9,3.1-2.1,5.4h12.6C214.2,186.7,213.7,184.9,212.6,183.6z"/>
	</g>
	<g id="XMLID_36_">
		<path id="XMLID_37_" class="st1" d="M327.6,203.1h-4.3l-16.8-25.4l-1.1-1.5c0.1,3.1,0.2,5.8,0.2,8.2v18.7h-3.5v-32.3h4.2
			l16.8,25.4l1.1,1.5c-0.1-4.6-0.2-7.3-0.2-8.1v-18.9h3.5V203.1z"/>
		<path id="XMLID_39_" class="st1" d="M355.6,191.1c0,3.7-1,6.7-3,9c-2,2.3-4.7,3.5-8.2,3.5c-3.4,0-6-1.2-8-3.5c-2-2.3-3-5.3-3-9
			c0-3.7,1-6.7,3-9c2-2.3,4.7-3.5,8.2-3.5c3.4,0,6.1,1.2,8.1,3.5C354.6,184.4,355.6,187.4,355.6,191.1z M337.2,191.2
			c0,2.8,0.6,5.1,1.9,6.8c1.3,1.7,3.1,2.6,5.5,2.6c2.4,0,4.2-0.9,5.4-2.6c1.2-1.7,1.8-4,1.8-6.9c0-2.9-0.6-5.2-1.8-6.9
			s-3-2.5-5.5-2.5c-2.4,0-4.2,0.9-5.5,2.6C337.8,186,337.2,188.3,337.2,191.2z"/>
		<path id="XMLID_42_" class="st1" d="M386.8,173.6c-2.4,0-4.5,0.6-6.3,1.8c-1.8,1.2-3.1,2.8-3.9,4.8s-1.3,4.3-1.3,6.9
			c0,1.9,0.2,3.7,0.7,5.3s1.2,3,2.1,4.2c0.9,1.2,2.1,2.1,3.6,2.8c1.5,0.7,3.2,1,5.1,1c2.5,0,5.1-0.6,7.7-1.9l0.6,3.2
			c-2.2,1.4-5.1,2.1-8.8,2.1c-2.4,0-4.6-0.4-6.5-1.2c-1.9-0.8-3.5-2-4.8-3.4s-2.2-3.2-2.9-5.3c-0.7-2-1-4.3-1-6.8
			c0-2.4,0.4-4.6,1.1-6.7c0.7-2,1.7-3.8,3-5.3c1.3-1.5,2.9-2.6,4.9-3.4c2-0.8,4.1-1.2,6.5-1.2c3.6,0,6.7,0.8,9.2,2.4l-1.5,3.1
			C392,174.3,389.5,173.6,386.8,173.6z"/>
		<path id="XMLID_44_" class="st1" d="M421.2,191.1c0,3.7-1,6.7-3,9c-2,2.3-4.7,3.5-8.2,3.5c-3.4,0-6-1.2-8-3.5c-2-2.3-3-5.3-3-9
			c0-3.7,1-6.7,3-9c2-2.3,4.7-3.5,8.2-3.5c3.4,0,6.1,1.2,8.1,3.5C420.2,184.4,421.2,187.4,421.2,191.1z M402.8,191.2
			c0,2.8,0.6,5.1,1.9,6.8c1.3,1.7,3.1,2.6,5.5,2.6c2.4,0,4.2-0.9,5.4-2.6c1.2-1.7,1.8-4,1.8-6.9c0-2.9-0.6-5.2-1.8-6.9
			c-1.2-1.7-3-2.5-5.5-2.5c-2.4,0-4.2,0.9-5.5,2.6C403.4,186,402.8,188.3,402.8,191.2z"/>
		<path id="XMLID_47_" class="st1" d="M426.3,203.1v-24h3.1l0.5,3.4c0.9-1.2,2.1-2.1,3.5-2.9s3-1.1,4.6-1.1c2.8,0,4.8,0.8,6.1,2.3
			s2,3.9,2,7.2v15h-3.6c0-9.6,0-14.8,0-15.4c-0.1-2-0.5-3.5-1.2-4.5c-0.8-0.9-2-1.4-3.8-1.4c-1.9,0-3.4,0.5-4.7,1.4
			c-1.3,0.9-2.1,2.1-2.4,3.5c-0.1,1-0.2,2.1-0.2,3.4v13.1H426.3z"/>
		<path id="XMLID_49_" class="st1" d="M459.8,203.6c-2.4,0-4-0.6-5-1.7c-1-1.2-1.5-3-1.6-5.6v-14.4h-3.6l0.2-2.4l3.4-0.3l1.2-5.5
			l2.4-0.1v5.6h6.7v2.7h-6.7v13.7c0,1.8,0.3,3.1,0.8,3.8s1.5,1.1,2.8,1.1c0.5,0,1.5-0.1,3.1-0.3l0.2,2.9
			C462.1,203.4,460.8,203.6,459.8,203.6z"/>
		<path id="XMLID_51_" class="st1" d="M478.5,179c0.7,0,1.3,0,1.8,0.1l-0.1,3.4c-0.7-0.1-1.3-0.2-1.7-0.2c-2,0-3.7,0.7-5,2.1
			s-1.9,3.2-1.9,5.3v13.5h-3.6c0-14.7,0-22.7,0-24h3l0.3,4.3c0.8-1.4,1.9-2.4,3.2-3.3S477,179,478.5,179z"/>
		<path id="XMLID_53_" class="st1" d="M504.6,191.1c0,3.7-1,6.7-3,9c-2,2.3-4.7,3.5-8.2,3.5c-3.4,0-6-1.2-8-3.5c-2-2.3-3-5.3-3-9
			c0-3.7,1-6.7,3-9c2-2.3,4.7-3.5,8.2-3.5c3.4,0,6.1,1.2,8.1,3.5C503.7,184.4,504.6,187.4,504.6,191.1z M486.2,191.2
			c0,2.8,0.6,5.1,1.9,6.8c1.3,1.7,3.1,2.6,5.5,2.6c2.4,0,4.2-0.9,5.4-2.6c1.2-1.7,1.8-4,1.8-6.9c0-2.9-0.6-5.2-1.8-6.9
			s-3-2.5-5.5-2.5c-2.4,0-4.2,0.9-5.5,2.6C486.9,186,486.2,188.3,486.2,191.2z"/>
		<path id="XMLID_56_" class="st1" d="M516.2,203.6c-2.3,0-4-0.6-4.9-1.9c-1-1.3-1.5-3.4-1.5-6.5v-25.3l3.6-0.2v24.1
			c0,1,0,1.8,0,2.4c0,0.6,0.1,1.2,0.2,1.8c0.1,0.6,0.2,1,0.3,1.3c0.1,0.3,0.4,0.6,0.6,0.8c0.3,0.2,0.6,0.4,1,0.5s0.9,0.1,1.4,0.1
			c0.5,0,1.4-0.1,2.8-0.3l0.2,2.9C518.5,203.4,517.3,203.6,516.2,203.6z"/>
	</g>
</g>
</svg>
