<?xml version="1.0" encoding="utf-8"?>
<!-- Generator: Adobe Illustrator 19.0.0, SVG Export Plug-In . SVG Version: 6.00 Build 0)  -->
<svg version="1.1" xmlns="http://www.w3.org/2000/svg" xmlns:xlink="http://www.w3.org/1999/xlink" x="0px" y="0px"
	 viewBox="0 0 492 119" style="enable-background:new 0 0 492 119;" xml:space="preserve">
<style type="text/css">
	.st0{display:none;}
	.st1{fill:#171617;}
	.st2{fill:none;stroke:#171617;stroke-width:5;stroke-miterlimit:10;}
	.st3{fill:none;stroke:#171617;stroke-width:3;stroke-miterlimit:10;}
</style>
<g id="Layer_1" class="st0">
	
		<image style="display:inline;overflow:visible;" width="229" height="149" id="XMLID_1_" xlink:href="Capture.PNG"  transform="matrix(2.6855 0 0 2.6855 17.4642 13.6078)">
	</image>
</g>
<g id="Layer_2">
	<g id="XMLID_22_">
		<path id="XMLID_110_" class="st1" d="M230.8,35.5l-0.5-3.5l11.1-12.3c0.7-0.8,1.5-1.9,2.2-3.2c0.7-1.3,1.2-2.4,1.5-3.3l0.5-1.4
			c0-1.8-0.5-3.2-1.5-4.1s-2.4-1.5-4.2-1.5c-3,0-5.4,0.9-7.2,2.6l-1.2-3.2c2-1.9,4.9-2.8,8.7-2.8c2.9,0,5.2,0.8,7,2.4
			c1.7,1.6,2.6,3.7,2.6,6.3c-0.1,0.2-0.1,0.5-0.3,0.8c-0.1,0.3-0.4,1-0.7,2s-0.8,1.9-1.2,2.8s-0.9,1.8-1.6,2.9
			c-0.6,1-1.3,1.9-1.9,2.6l-9.1,9.7h14.9l-0.2,3.3H230.8z"/>
	</g>
	<g id="XMLID_50_">
		<path id="XMLID_51_" class="st1" d="M33.7,84h3.1l-9.1,25h-3l-9-25h3.1l5.6,15.9c0.7,2.1,1.3,4,1.9,5.8c0.2-0.8,0.8-2.8,1.9-5.9
			C29.9,94.8,31.8,89.5,33.7,84z"/>
		<path id="XMLID_53_" class="st1" d="M55,99.7c0,2.9-0.8,5.2-2.3,7c-1.5,1.8-3.7,2.7-6.4,2.7c-2.6,0-4.7-0.9-6.2-2.7
			c-1.5-1.8-2.3-4.1-2.3-7c0-2.9,0.8-5.2,2.3-7s3.7-2.7,6.4-2.7c2.6,0,4.7,0.9,6.2,2.7C54.2,94.5,55,96.9,55,99.7z M40.7,99.8
			c0,2.2,0.5,4,1.5,5.3c1,1.3,2.4,2,4.3,2c1.8,0,3.2-0.7,4.2-2c0.9-1.3,1.4-3.1,1.4-5.3c0-2.3-0.5-4-1.4-5.4c-0.9-1.3-2.3-2-4.3-2
			c-1.8,0-3.3,0.7-4.2,2C41.2,95.8,40.7,97.5,40.7,99.8z"/>
		<path id="XMLID_56_" class="st1" d="M64.9,109.3c-1.8,0-3.1-0.4-3.9-1.3c-0.8-0.9-1.2-2.3-1.2-4.3V92.5H57l0.1-1.9l2.6-0.2l1-4.2
			l1.9-0.1v4.3h5.2v2.1h-5.2v10.6c0,1.4,0.2,2.4,0.6,3c0.4,0.6,1.2,0.9,2.2,0.9c0.4,0,1.2-0.1,2.4-0.3l0.1,2.2
			C66.6,109.2,65.6,109.3,64.9,109.3z"/>
		<path id="XMLID_58_" class="st1" d="M78.6,109.4c-2.7,0-4.8-0.9-6.4-2.6c-1.6-1.7-2.3-4.1-2.3-7c0-2.9,0.7-5.2,2.2-7
			c1.5-1.8,3.5-2.7,5.9-2.7c2.3,0,4.1,0.8,5.5,2.4s2,3.7,2,6.3c0,0.1,0,0.4,0,0.7c0,0.4,0,0.6,0,0.8H72.8c0,2.1,0.6,3.8,1.6,4.9
			c1.1,1.2,2.5,1.8,4.3,1.8c2,0,3.9-0.5,5.9-1.6l0.4,2.3C83.2,108.8,81,109.4,78.6,109.4z M81.5,93.9c-0.8-1-2-1.5-3.4-1.5
			c-1.4,0-2.6,0.5-3.5,1.5c-0.9,1-1.4,2.4-1.6,4.2h9.8C82.7,96.3,82.3,94.9,81.5,93.9z"/>
		<path id="XMLID_61_" class="st1" d="M95,109.4c-1.3,0-2.4-0.1-3.5-0.4c-1.1-0.3-1.9-0.6-2.6-1l0.4-2.4c1.9,1,3.7,1.5,5.5,1.5
			c2.8,0,4.2-1,4.2-2.9c0-0.8-0.3-1.5-0.9-1.9s-1.7-1-3.4-1.6l-1.4-0.5c-1.6-0.5-2.8-1.2-3.5-2c-0.7-0.8-1-1.8-1.1-3
			c0-1.5,0.6-2.7,1.8-3.6c1.2-1,2.8-1.4,4.8-1.4c2.1,0,4,0.4,5.7,1.2l-0.8,2.2c-1.7-0.7-3.4-1.1-4.9-1.1c-1.2,0-2.1,0.2-2.8,0.7
			c-0.7,0.5-1,1.1-1,2c0,0.7,0.2,1.3,0.7,1.7c0.5,0.4,1.5,0.8,2.9,1.3c0.4,0.1,0.8,0.3,1.4,0.5c1.9,0.6,3.2,1.3,4,2.2
			s1.2,1.9,1.2,3.4c0,1.7-0.6,3-1.8,4S97.1,109.4,95,109.4z"/>
		<path id="XMLID_63_" class="st1" d="M133.4,109H130l-3.5-7.8c-0.9-2.1-1.5-3.4-1.8-3.8c-0.8,0.1-1.8,0.1-2.9,0.1l-4.5-0.1V109h-3
			V83.7h8c0.9,0,1.7,0,2.5,0.1s1.4,0.1,2.1,0.2c0.7,0.1,1.3,0.3,1.8,0.5c0.5,0.2,1,0.5,1.5,0.8c0.5,0.3,0.8,0.7,1.1,1.2
			c0.3,0.5,0.5,1,0.7,1.6c0.2,0.6,0.2,1.4,0.2,2.2c0,1.6-0.4,2.9-1.2,4.1s-2,1.9-3.5,2.4c0,0,0.1,0.2,0.3,0.6s0.5,0.9,0.8,1.4
			s0.5,1,0.7,1.4L133.4,109z M117.3,86.3v8.5c0.5,0,1.4,0,2.9,0s2.6,0,3.4,0c2.2,0,3.7-0.4,4.5-1.1c0.8-0.7,1.3-1.9,1.3-3.4
			c0-1.4-0.4-2.4-1.2-3c-0.8-0.7-2.2-1-4.1-1H117.3z"/>
		<path id="XMLID_66_" class="st1" d="M144.8,109.4c-2.7,0-4.8-0.9-6.4-2.6c-1.6-1.7-2.3-4.1-2.3-7c0-2.9,0.7-5.2,2.2-7
			c1.5-1.8,3.5-2.7,5.9-2.7c2.3,0,4.1,0.8,5.5,2.4s2,3.7,2,6.3c0,0.1,0,0.4,0,0.7c0,0.4,0,0.6,0,0.8H139c0,2.1,0.6,3.8,1.6,4.9
			c1.1,1.2,2.5,1.8,4.3,1.8c2,0,3.9-0.5,5.9-1.6l0.4,2.3C149.3,108.8,147.2,109.4,144.8,109.4z M147.6,93.9c-0.8-1-2-1.5-3.4-1.5
			c-1.4,0-2.6,0.5-3.5,1.5c-0.9,1-1.4,2.4-1.6,4.2h9.8C148.8,96.3,148.4,94.9,147.6,93.9z"/>
		<path id="XMLID_69_" class="st1" d="M162.6,109.4c-1.6,0-3-0.4-4.2-1.3s-2.1-2-2.6-3.4c-0.6-1.4-0.9-3.1-0.9-4.9
			c0-1.9,0.3-3.6,0.9-5.1c0.6-1.5,1.5-2.6,2.7-3.5c1.2-0.8,2.6-1.3,4.3-1.3c2.3,0,4.3,1,5.8,3l0.2-2.6h2.5v26.4l-2.8,0.2v-8.2
			c0-0.8,0-1.7,0.1-2.5c-0.6,0.9-1.5,1.7-2.5,2.2C165,109.1,163.8,109.4,162.6,109.4z M162.9,107c1.9,0,3.3-0.6,4.1-1.8
			c0.9-1.2,1.3-2.9,1.4-5.1c0-2.5-0.4-4.4-1.3-5.6c-0.9-1.3-2.3-1.9-4.2-1.9c-1.2,0-2.2,0.3-3,1s-1.4,1.5-1.7,2.6
			c-0.3,1.1-0.5,2.3-0.5,3.7c0,1,0.1,2,0.3,2.8c0.2,0.9,0.5,1.6,0.9,2.3c0.4,0.7,0.9,1.2,1.6,1.5S162,107,162.9,107z"/>
		<path id="XMLID_72_" class="st1" d="M175.5,102.8V90.4h2.8v12.4c0,0.8,0.1,1.5,0.3,2.1c0.2,0.6,0.6,1,1,1.3
			c0.4,0.3,0.9,0.5,1.5,0.7s1.2,0.2,1.9,0.2c1.5,0,2.6-0.3,3.4-1s1.2-1.7,1.2-3.3V90.4h2.8v12.4c0,0.9-0.1,1.8-0.4,2.6
			c-0.3,0.8-0.6,1.4-1.1,1.9c-0.5,0.5-1,0.9-1.6,1.2c-0.6,0.3-1.3,0.6-2,0.7c-0.7,0.1-1.5,0.2-2.3,0.2c-0.8,0-1.6-0.1-2.3-0.2
			c-0.7-0.1-1.4-0.4-2.1-0.7c-0.6-0.3-1.2-0.8-1.7-1.3s-0.8-1.1-1.1-1.9S175.5,103.7,175.5,102.8z"/>
		<path id="XMLID_74_" class="st1" d="M198.1,83.7V87h-2.8v-3.3H198.1z M198.1,90.4V109h-2.8V90.4H198.1z"/>
		<path id="XMLID_77_" class="st1" d="M211.7,90.3c0.5,0,1,0,1.4,0.1L213,93c-0.5-0.1-1-0.1-1.4-0.1c-1.6,0-2.9,0.5-3.8,1.6
			c-1,1.1-1.5,2.5-1.5,4.1V109h-2.8c0-11.4,0-17.6,0-18.6h2.4l0.3,3.3c0.6-1,1.5-1.9,2.5-2.5S210.6,90.3,211.7,90.3z"/>
		<path id="XMLID_79_" class="st1" d="M223.5,109.4c-2.7,0-4.8-0.9-6.4-2.6c-1.6-1.7-2.3-4.1-2.3-7c0-2.9,0.8-5.2,2.3-7
			c1.5-1.8,3.5-2.7,5.9-2.7c2.3,0,4.1,0.8,5.5,2.4c1.3,1.6,2,3.7,2,6.3c0,0.1,0,0.4,0,0.7c0,0.4,0,0.6,0,0.8h-12.7
			c0,2.1,0.6,3.8,1.6,4.9c1.1,1.2,2.5,1.8,4.3,1.8c2,0,3.9-0.5,5.9-1.6l0.4,2.3C228.1,108.8,225.9,109.4,223.5,109.4z M226.3,93.9
			c-0.8-1-2-1.5-3.4-1.5s-2.6,0.5-3.5,1.5s-1.4,2.4-1.6,4.2h9.8C227.6,96.3,227.2,94.9,226.3,93.9z"/>
		<path id="XMLID_82_" class="st1" d="M247.2,106.3c-0.6,0.9-1.4,1.7-2.4,2.2s-2.1,0.8-3.4,0.8c-2.4,0-4.4-0.9-5.8-2.6
			s-2.1-4.1-2.1-7.1c0-2.9,0.7-5.2,2.1-6.9c1.4-1.8,3.3-2.6,5.7-2.6c1.2,0,2.4,0.3,3.5,0.8c1.1,0.5,1.9,1.3,2.4,2.2l-0.1-1.6v-8.2
			l2.8-0.2V109h-2.4L247.2,106.3z M241.6,107c1.9,0,3.2-0.6,4.2-1.8c0.9-1.2,1.4-2.9,1.4-5.1c0-2.5-0.4-4.4-1.3-5.7
			c-0.9-1.3-2.3-1.9-4.2-1.9c-0.9,0-1.6,0.2-2.3,0.6s-1.2,0.9-1.6,1.6c-0.4,0.7-0.7,1.4-0.9,2.3c-0.2,0.9-0.3,1.8-0.3,2.8
			c0,1.4,0.2,2.7,0.5,3.8c0.4,1.1,0.9,1.9,1.7,2.5S240.5,107,241.6,107z"/>
		<path id="XMLID_85_" class="st1" d="M271.8,109h-2.9V86.6h-7.7V84h18.3v2.6h-7.7V109z"/>
		<path id="XMLID_87_" class="st1" d="M297.7,99.7c0,2.9-0.8,5.2-2.3,7c-1.5,1.8-3.7,2.7-6.4,2.7c-2.6,0-4.7-0.9-6.2-2.7
			c-1.5-1.8-2.3-4.1-2.3-7c0-2.9,0.8-5.2,2.3-7c1.5-1.8,3.7-2.7,6.4-2.7c2.6,0,4.7,0.9,6.2,2.7C296.9,94.5,297.7,96.9,297.7,99.7z
			 M283.4,99.8c0,2.2,0.5,4,1.5,5.3c1,1.3,2.4,2,4.3,2c1.8,0,3.2-0.7,4.2-2c0.9-1.3,1.4-3.1,1.4-5.3c0-2.3-0.5-4-1.4-5.4
			c-0.9-1.3-2.3-2-4.3-2c-1.8,0-3.3,0.7-4.2,2C283.9,95.8,283.4,97.5,283.4,99.8z"/>
		<path id="XMLID_90_" class="st1" d="M310.3,104.9c2.6,1.3,5.4,1.9,8.4,1.9c3.7,0,5.5-1.7,5.5-5c0-1.1-0.3-2-0.9-2.6
			c-0.6-0.7-1.6-1.2-3.2-1.6l-5-1.3c-3.8-1-5.7-3-5.7-6.1c0-2.4,0.8-4.1,2.5-5.3s3.9-1.7,6.8-1.7c1.5,0,2.9,0.2,4.2,0.5
			c1.3,0.3,2.4,0.8,3.3,1.3l-0.8,2.4c-0.8-0.4-1.8-0.8-3-1.1c-1.2-0.3-2.5-0.5-3.8-0.5c-4.1,0-6.1,1.4-6.1,4.2c0,1,0.3,1.7,0.9,2.3
			c0.6,0.6,1.6,1,2.8,1.3l4.8,1.2c2,0.5,3.6,1.3,4.6,2.3c1,1.1,1.6,2.6,1.6,4.5c0,2.5-0.8,4.5-2.3,5.8c-1.6,1.3-3.7,1.9-6.4,1.9
			c-2,0-3.8-0.2-5.4-0.6c-1.6-0.4-2.8-0.9-3.7-1.5L310.3,104.9z"/>
		<path id="XMLID_92_" class="st1" d="M331.1,109V83.2l2.8-0.2v13.5v2.4c0.1-0.1,0.2-0.2,0.3-0.3c0.1-0.2,0.2-0.3,0.3-0.4
			c1-1.1,3.5-3.7,7.6-7.8h3.6l-7.7,7.8l8.3,10.7h-3.5l-6.8-9.1l-2.1,1.8v7.4H331.1z"/>
		<path id="XMLID_94_" class="st1" d="M352,83.7V87h-2.8v-3.3H352z M352,90.4V109h-2.8V90.4H352z"/>
		<path id="XMLID_97_" class="st1" d="M357.3,117V90.4h2.5L360,93c1.6-1.9,3.6-2.9,5.9-2.9c1.7,0,3.1,0.4,4.3,1.3
			c1.2,0.8,2,2,2.6,3.4c0.6,1.4,0.8,3.1,0.8,5.1c0,1.8-0.3,3.5-0.9,4.9c-0.6,1.4-1.5,2.6-2.7,3.4c-1.2,0.8-2.6,1.2-4.1,1.2
			c-1.2,0-2.3-0.3-3.4-0.8c-1-0.5-1.9-1.2-2.5-2.1c0.1,1.2,0.1,2.4,0.1,3.6v6.8L357.3,117z M365.5,107c0.9,0,1.6-0.2,2.3-0.6
			c0.7-0.4,1.2-0.9,1.6-1.6c0.4-0.7,0.7-1.4,0.9-2.3c0.2-0.9,0.3-1.8,0.3-2.8c0-2.1-0.4-3.9-1.3-5.2c-0.9-1.4-2.2-2-3.9-2
			c-3.6,0-5.4,2.3-5.4,7c0,2.5,0.4,4.4,1.3,5.7S363.6,107,365.5,107z"/>
		<path id="XMLID_100_" class="st1" d="M386.3,104.9c2.6,1.3,5.4,1.9,8.4,1.9c3.7,0,5.5-1.7,5.5-5c0-1.1-0.3-2-0.9-2.6
			c-0.6-0.7-1.6-1.2-3.2-1.6l-5-1.3c-3.8-1-5.7-3-5.7-6.1c0-2.4,0.8-4.1,2.5-5.3s3.9-1.7,6.8-1.7c1.5,0,2.9,0.2,4.2,0.5
			c1.3,0.3,2.4,0.8,3.3,1.3l-0.8,2.4c-0.8-0.4-1.8-0.8-3-1.1c-1.2-0.3-2.5-0.5-3.8-0.5c-4.1,0-6.1,1.4-6.1,4.2c0,1,0.3,1.7,0.9,2.3
			c0.6,0.6,1.6,1,2.8,1.3l4.8,1.2c2,0.5,3.6,1.3,4.6,2.3c1,1.1,1.6,2.6,1.6,4.5c0,2.5-0.8,4.5-2.3,5.8c-1.6,1.3-3.7,1.9-6.4,1.9
			c-2,0-3.8-0.2-5.4-0.6c-1.6-0.4-2.8-0.9-3.7-1.5L386.3,104.9z"/>
		<path id="XMLID_102_" class="st1" d="M423.3,99.7c0,2.9-0.8,5.2-2.3,7c-1.5,1.8-3.7,2.7-6.4,2.7c-2.6,0-4.7-0.9-6.2-2.7
			c-1.5-1.8-2.3-4.1-2.3-7c0-2.9,0.8-5.2,2.3-7c1.5-1.8,3.7-2.7,6.4-2.7c2.6,0,4.7,0.9,6.2,2.7C422.6,94.5,423.3,96.9,423.3,99.7z
			 M409.1,99.8c0,2.2,0.5,4,1.5,5.3c1,1.3,2.4,2,4.3,2c1.8,0,3.2-0.7,4.2-2c0.9-1.3,1.4-3.1,1.4-5.3c0-2.3-0.5-4-1.4-5.4
			c-0.9-1.3-2.3-2-4.3-2c-1.8,0-3.3,0.7-4.2,2C409.5,95.8,409.1,97.5,409.1,99.8z"/>
		<path id="XMLID_105_" class="st1" d="M427.3,109V90.4h2.4l0.4,2.7c0.7-0.9,1.6-1.6,2.7-2.2c1.1-0.6,2.3-0.8,3.6-0.8
			c2.1,0,3.7,0.6,4.8,1.8c1,1.2,1.5,3,1.5,5.5V109h-2.8c0-7.4,0-11.4,0-12c0-1.6-0.4-2.7-1-3.5s-1.6-1.1-3-1.1c-1.5,0-2.7,0.3-3.6,1
			c-1,0.7-1.6,1.6-1.9,2.7c-0.1,0.8-0.2,1.6-0.2,2.6V109H427.3z"/>
		<path id="XMLID_107_" class="st1" d="M450.2,117.5l-0.3-2.6h3.5c1,0,1.8-0.1,2.5-0.2c0.7-0.1,1.3-0.4,1.8-0.7s0.9-0.7,1.2-1
			c0.3-0.4,0.5-0.9,0.7-1.5s0.3-1.2,0.3-1.8s0.1-1.3,0.1-2.2V106c-0.7,1-1.5,1.7-2.4,2.2s-2,0.8-3.4,0.8c-1.1,0-2-0.2-2.9-0.5
			s-1.7-0.9-2.3-1.5c-0.6-0.6-1.1-1.3-1.6-2.1c-0.4-0.8-0.8-1.6-0.9-2.5c-0.2-0.9-0.3-1.7-0.3-2.6c0-1.4,0.2-2.6,0.5-3.8
			c0.3-1.2,0.8-2.2,1.5-3.1c0.7-0.9,1.5-1.6,2.6-2.1s2.3-0.8,3.7-0.8c1.2,0,2.3,0.2,3.2,0.7c0.9,0.5,1.7,1.2,2.4,2.2v-2.5h2.8v17.2
			c0,0.8,0,1.5-0.1,2.1c0,0.6-0.1,1.2-0.3,2c-0.2,0.7-0.4,1.3-0.6,1.9c-0.3,0.5-0.6,1-1.1,1.6c-0.5,0.5-1,0.9-1.7,1.3
			s-1.5,0.6-2.4,0.8c-1,0.2-2,0.3-3.2,0.3H450.2z M454.5,106.6c1,0,1.8-0.2,2.5-0.5c0.7-0.3,1.3-0.8,1.7-1.4c0.4-0.6,0.7-1.3,0.9-2
			s0.3-1.5,0.3-2.4v-1.4c0-0.9-0.1-1.7-0.3-2.5c-0.2-0.8-0.5-1.4-0.9-2c-0.4-0.6-1-1.1-1.7-1.4c-0.7-0.3-1.5-0.5-2.5-0.5
			c-0.8,0-1.5,0.1-2.1,0.4c-0.6,0.3-1.2,0.7-1.6,1.2c-0.4,0.5-0.8,1-1,1.7c-0.3,0.6-0.5,1.3-0.6,1.9c-0.1,0.7-0.2,1.3-0.2,2
			c0,0.7,0.1,1.3,0.2,1.9c0.1,0.6,0.3,1.3,0.6,1.9c0.3,0.6,0.6,1.1,1.1,1.6c0.4,0.5,0.9,0.8,1.6,1.1
			C453.1,106.4,453.8,106.6,454.5,106.6z"/>
	</g>
	<line id="XMLID_21_" class="st2" x1="0" y1="60.7" x2="492" y2="60.7"/>
	<rect id="XMLID_20_" x="450.3" y="26" class="st3" width="40.2" height="17.3"/>
	<polygon id="XMLID_19_" class="st1" points="462.2,30.7 478.5,30.7 470.4,38.7 	"/>
	<rect id="XMLID_18_" x="450.3" y="8.7" class="st3" width="40.2" height="17.3"/>
	<polygon id="XMLID_17_" class="st1" points="478.5,21.4 462.2,21.4 470.3,13.4 	"/>
</g>
</svg>
